0
SECTION
2
HEADER
9
$INSUNITS
70
4
9
$ACADVER
1
AC1014
9
$HANDSEED
5
FFFF
0
ENDSEC
0
SECTION
2
TABLES
0
TABLE
2
VPORT
5
8
100
AcDbSymbolTable
0
ENDTAB
0
TABLE
2
LTYPE
5
5
100
AcDbSymbolTable
0
LTYPE
5
14
100
AcDbSymbolTableRecord
100
AcDbLinetypeTableRecord
2
BYBLOCK
70
0
0
LTYPE
5
15
100
AcDbSymbolTableRecord
100
AcDbLinetypeTableRecord
2
BYLAYER
70
0
0
ENDTAB
0
TABLE
2
LAYER
5
2
100
AcDbSymbolTable
70
2
0
LAYER
5
50
100
AcDbSymbolTableRecord
100
AcDbLayerTableRecord
2
0
70
0
6
CONTINUOUS
0
ENDTAB
0
TABLE
2
STYLE
5
3
100
AcDbSymbolTable
70
1
0
STYLE
5
11
100
AcDbSymbolTableRecord
100
AcDbTextStyleTableRecord
2
STANDARD
70
0
0
ENDTAB
0
TABLE
2
VIEW
5
6
100
AcDbSymbolTable
70
0
0
ENDTAB
0
TABLE
2
UCS
5
7
100
AcDbSymbolTable
70
0
0
ENDTAB
0
TABLE
2
APPID
5
9
100
AcDbSymbolTable
70
2
0
APPID
5
12
100
AcDbSymbolTableRecord
100
AcDbRegAppTableRecord
2
ACAD
70
0
0
ENDTAB
0
TABLE
2
DIMSTYLE
5
A
100
AcDbSymbolTable
70
1
0
ENDTAB
0
TABLE
2
BLOCK_RECORD
5
1
100
AcDbSymbolTable
70
1
0
BLOCK_RECORD
5
1F
100
AcDbSymbolTableRecord
100
AcDbBlockTableRecord
2
*MODEL_SPACE
0
BLOCK_RECORD
5
1B
100
AcDbSymbolTableRecord
100
AcDbBlockTableRecord
2
*PAPER_SPACE
0
ENDTAB
0
ENDSEC
0
SECTION
2
BLOCKS
0
BLOCK
5
20
100
AcDbEntity
100
AcDbBlockBegin
2
*MODEL_SPACE
0
ENDBLK
5
21
100
AcDbEntity
100
AcDbBlockEnd
0
BLOCK
5
1C
100
AcDbEntity
100
AcDbBlockBegin
2
*PAPER_SPACE
0
ENDBLK
5
1D
100
AcDbEntity
100
AcDbBlockEnd
0
ENDSEC
0
SECTION
2
ENTITIES
0
LWPOLYLINE
5
100
100
AcDbEntity
8
0
100
AcDbPolyline
90
8
70
1
43
0.0
10
17.3125
20
-7.5750000000000011
42
0.41421356237309509
10
16.8125
20
-8.0750000000000011
10
16.812500000000004
20
-21.074999999999999
42
0.41421356237309509
10
17.3125
20
-21.574999999999996
10
30.3125
20
-21.574999999999996
42
0.41421356237309509
10
30.8125
20
-21.074999999999999
10
30.8125
20
-8.0750000000000011
42
0.41421356237309509
10
30.3125
20
-7.5750000000000028
0
LWPOLYLINE
5
101
100
AcDbEntity
8
0
100
AcDbPolyline
90
8
70
1
43
0.0
10
270.84375
20
-42.625
10
269.84375
20
-42.625
42
-0.41421356237309509
10
269.34375
20
-42.125
10
269.34375
20
-29.124999999999996
42
-0.41421356237309509
10
269.84375
20
-28.625
10
270.84375
20
-28.625
42
-0.41421356237309509
10
271.34375
20
-29.124999999999996
10
271.34375
20
-42.125
42
-0.41421356237309509
0
LWPOLYLINE
5
102
100
AcDbEntity
8
0
100
AcDbPolyline
90
8
70
1
43
0.0
10
207.48125000000002
20
-9.5750000000000046
10
194.48125000000002
20
-9.5749999999999957
42
0.41421356237309509
10
193.98124999999999
20
-10.075000000000003
10
193.98124999999999
20
-23.075000000000003
42
0.41421356237309509
10
194.48125000000002
20
-23.574999999999999
10
207.48125000000002
20
-23.57500000000001
42
0.41421356237309509
10
207.98125000000002
20
-23.075000000000003
10
207.98125000000002
20
-10.075000000000003
42
0.41421356237309509
0
LWPOLYLINE
5
103
100
AcDbEntity
8
0
100
AcDbPolyline
90
8
70
1
43
0.0
10
97.775000000000006
20
-78.224999999999994
42
0.41421356237309509
10
98.275000000000006
20
-78.724999999999994
10
111.27500000000001
20
-78.725000000000009
42
0.41421356237309509
10
111.77500000000002
20
-78.224999999999994
10
111.77500000000002
20
-65.224999999999994
42
0.41421356237309509
10
111.27500000000001
20
-64.724999999999994
10
98.275000000000006
20
-64.724999999999994
42
0.41421356237309509
10
97.775000000000006
20
-65.224999999999994
0
LWPOLYLINE
5
104
100
AcDbEntity
8
0
100
AcDbPolyline
90
8
70
1
43
0.0
10
87.46250000000002
20
-7.5750000000000028
10
74.462500000000006
20
-7.5750000000000028
42
0.41421356237309509
10
73.962500000000006
20
-8.0750000000000011
10
73.962500000000006
20
-21.074999999999999
42
0.41421356237309509
10
74.462500000000006
20
-21.574999999999996
10
87.46250000000002
20
-21.575000000000006
42
0.41421356237309509
10
87.96250000000002
20
-21.074999999999999
10
87.962500000000006
20
-8.0750000000000011
42
0.41421356237309509
0
LWPOLYLINE
5
105
100
AcDbEntity
8
0
100
AcDbPolyline
90
8
70
1
43
0.0
10
324.16250000000002
20
-42.624999999999972
42
0.41421356237309509
10
324.66250000000002
20
-42.125
10
324.66250000000002
20
-29.124999999999996
42
0.41421356237309509
10
324.16250000000002
20
-28.625
10
311.16250000000002
20
-28.625000000000025
42
0.41421356237309509
10
310.66250000000002
20
-29.124999999999996
10
310.66250000000002
20
-42.125
42
0.41421356237309509
10
311.16250000000002
20
-42.625
0
LWPOLYLINE
5
106
100
AcDbEntity
8
0
100
AcDbPolyline
90
8
70
1
43
0.0
10
291.61250000000001
20
-67.224999999999994
10
291.61250000000001
20
-80.225000000000009
42
0.41421356237309509
10
292.11250000000001
20
-80.724999999999994
10
305.11250000000007
20
-80.72499999999998
42
0.41421356237309509
10
305.61250000000001
20
-80.225000000000009
10
305.61250000000007
20
-67.224999999999994
42
0.41421356237309509
10
305.11250000000007
20
-66.725000000000009
10
292.11250000000001
20
-66.725000000000023
42
0.41421356237309509
0
LWPOLYLINE
5
107
100
AcDbEntity
8
0
100
AcDbPolyline
90
8
70
1
43
0.0
10
333.6875
20
-66.725000000000009
10
320.6875
20
-66.725000000000023
42
0.41421356237309509
10
320.18750000000006
20
-67.224999999999994
10
320.18750000000006
20
-80.225000000000009
42
0.41421356237309509
10
320.6875
20
-80.724999999999994
10
333.6875
20
-80.725000000000051
42
0.41421356237309509
10
334.1875
20
-80.225000000000009
10
334.18749999999994
20
-67.224999999999994
42
0.41421356237309509
0
LWPOLYLINE
5
108
100
AcDbEntity
8
0
100
AcDbPolyline
90
8
70
1
43
0.0
10
20.787500000000001
20
-59.674999999999997
10
7.7875000000000005
20
-59.675000000000004
42
-0.41421356237309509
10
7.2874999999999996
20
-59.175000000000004
10
7.2874999999999996
20
-46.174999999999997
42
-0.41421356237309509
10
7.7875000000000005
20
-45.674999999999997
10
20.787500000000001
20
-45.674999999999997
42
-0.41421356237309509
10
21.287500000000001
20
-46.174999999999997
10
21.287500000000001
20
-59.175000000000004
42
-0.41421356237309509
0
LWPOLYLINE
5
109
100
AcDbEntity
8
0
100
AcDbPolyline
90
8
70
1
43
0.0
10
247.96250000000001
20
-80.724999999999994
10
234.96250000000001
20
-80.724999999999994
42
-0.41421356237309509
10
234.46249999999998
20
-80.225000000000009
10
234.46249999999998
20
-67.224999999999994
42
-0.41421356237309509
10
234.96250000000001
20
-66.725000000000009
10
247.96250000000001
20
-66.725000000000009
42
-0.41421356237309509
10
248.46250000000001
20
-67.224999999999994
10
248.46249999999998
20
-80.225000000000009
42
-0.41421356237309509
0
LWPOLYLINE
5
110
100
AcDbEntity
8
0
100
AcDbPolyline
90
8
70
1
43
0.0
10
292.54374999999999
20
-42.125
42
0.41421356237309509
10
293.04374999999999
20
-42.625
10
294.04375000000005
20
-42.624999999999972
42
0.41421356237309509
10
294.54374999999999
20
-42.125
10
294.54375000000005
20
-29.124999999999996
42
0.41421356237309509
10
294.04375000000005
20
-28.625
10
293.04374999999999
20
-28.625000000000025
42
0.41421356237309509
10
292.54375000000005
20
-29.124999999999996
0
LWPOLYLINE
5
111
100
AcDbEntity
8
0
100
AcDbPolyline
90
8
70
1
43
0.0
10
44.549999999999997
20
-21.074999999999999
42
0.41421356237309509
10
45.049999999999997
20
-21.574999999999996
10
46.049999999999997
20
-21.574999999999996
42
0.41421356237309509
10
46.550000000000004
20
-21.074999999999999
10
46.549999999999997
20
-8.0750000000000011
42
0.41421356237309509
10
46.049999999999997
20
-7.5750000000000028
10
45.049999999999997
20
-7.5750000000000028
42
0.41421356237309509
10
44.549999999999997
20
-8.0750000000000011
0
LWPOLYLINE
5
112
100
AcDbEntity
8
0
100
AcDbPolyline
90
8
70
1
43
0.0
10
59.725000000000001
20
-59.674999999999997
10
58.725000000000009
20
-59.675000000000004
42
-0.41421356237309509
10
58.225000000000009
20
-59.175000000000004
10
58.225000000000009
20
-46.174999999999997
42
-0.41421356237309509
10
58.725000000000009
20
-45.674999999999997
10
59.725000000000001
20
-45.674999999999997
42
-0.41421356237309509
10
60.225000000000009
20
-46.174999999999997
10
60.225000000000001
20
-59.175000000000004
42
-0.41421356237309509
0
LWPOLYLINE
5
113
100
AcDbEntity
8
0
100
AcDbPolyline
90
8
70
1
43
0.0
10
116.82500000000002
20
-78.224999999999994
42
0.41421356237309509
10
117.32500000000002
20
-78.724999999999994
10
130.32499999999999
20
-78.725000000000009
42
0.41421356237309509
10
130.82499999999999
20
-78.224999999999994
10
130.82499999999999
20
-65.224999999999994
42
0.41421356237309509
10
130.32499999999999
20
-64.724999999999994
10
117.32500000000002
20
-64.724999999999994
42
0.41421356237309509
10
116.82500000000002
20
-65.224999999999994
0
LWPOLYLINE
5
114
100
AcDbEntity
8
0
100
AcDbPolyline
90
8
70
1
43
0.0
10
83.487499999999983
20
-59.175000000000004
42
0.41421356237309509
10
83.987499999999997
20
-59.674999999999997
10
96.987500000000011
20
-59.675000000000011
42
0.41421356237309509
10
97.487500000000011
20
-59.175000000000004
10
97.487500000000011
20
-46.174999999999997
42
0.41421356237309509
10
96.987500000000011
20
-45.674999999999997
10
83.987499999999997
20
-45.67499999999999
42
0.41421356237309509
10
83.487499999999983
20
-46.174999999999997
0
LWPOLYLINE
5
115
100
AcDbEntity
8
0
100
AcDbPolyline
90
8
70
1
43
0.0
10
190.8125
20
-66.725000000000009
10
177.8125
20
-66.725000000000023
42
0.41421356237309509
10
177.31250000000003
20
-67.224999999999994
10
177.31250000000003
20
-80.225000000000009
42
0.41421356237309509
10
177.8125
20
-80.724999999999994
10
190.8125
20
-80.725000000000023
42
0.41421356237309509
10
191.3125
20
-80.225000000000009
10
191.3125
20
-67.224999999999994
42
0.41421356237309509
0
LWPOLYLINE
5
116
100
AcDbEntity
8
0
100
AcDbPolyline
90
8
70
1
43
0.0
10
35.024999999999999
20
-46.174999999999997
10
35.025000000000006
20
-59.175000000000004
42
0.41421356237309509
10
35.525000000000006
20
-59.674999999999997
10
36.524999999999999
20
-59.675000000000004
42
0.41421356237309509
10
37.024999999999999
20
-59.175000000000004
10
37.024999999999999
20
-46.174999999999997
42
0.41421356237309509
10
36.524999999999999
20
-45.67499999999999
10
35.525000000000006
20
-45.674999999999997
42
0.41421356237309509
0
LWPOLYLINE
5
117
100
AcDbEntity
8
0
100
AcDbPolyline
90
8
70
1
43
0.0
10
192.10000000000002
20
-28.624999999999989
42
0.41421356237309509
10
191.59999999999999
20
-29.124999999999996
10
191.59999999999999
20
-42.125
42
0.41421356237309509
10
192.10000000000002
20
-42.625
10
205.10000000000002
20
-42.625000000000014
42
0.41421356237309509
10
205.60000000000002
20
-42.125
10
205.60000000000002
20
-29.124999999999996
42
0.41421356237309509
10
205.10000000000002
20
-28.625
0
LWPOLYLINE
5
118
100
AcDbEntity
8
0
100
AcDbPolyline
90
8
70
1
43
0.0
10
216.29425000000001
20
-9.0749999999999975
10
216.29425000000001
20
-22.075000000000003
42
-0.41421356237309509
10
215.79425000000001
20
-22.575000000000003
10
210.04425000000001
20
-22.575000000000003
42
-0.41421356237309509
10
209.54425000000001
20
-22.075000000000003
10
209.54425000000001
20
-9.0749999999999975
42
-0.41421356237309509
10
210.04425000000001
20
-8.5749999999999993
10
215.79425000000001
20
-8.5749999999999993
42
-0.41421356237309509
0
LWPOLYLINE
5
119
100
AcDbEntity
8
0
100
AcDbPolyline
90
8
70
1
43
0.0
10
229.41250000000002
20
-67.224999999999994
10
229.41250000000002
20
-80.225000000000009
42
-0.41421356237309509
10
228.91250000000002
20
-80.724999999999994
10
215.91250000000002
20
-80.724999999999994
42
-0.41421356237309509
10
215.41250000000002
20
-80.225000000000009
10
215.41250000000002
20
-67.224999999999994
42
-0.41421356237309509
10
215.91250000000002
20
-66.725000000000009
10
228.91250000000002
20
-66.725000000000009
42
-0.41421356237309509
0
LWPOLYLINE
5
120
100
AcDbEntity
8
0
100
AcDbPolyline
90
8
70
1
43
0.0
10
40.625
20
-59.175000000000004
42
0.41421356237309509
10
41.125
20
-59.674999999999997
10
54.125000000000007
20
-59.675000000000004
42
0.41421356237309509
10
54.625
20
-59.175000000000004
10
54.625
20
-46.174999999999997
42
0.41421356237309509
10
54.125000000000007
20
-45.674999999999997
10
41.125
20
-45.674999999999997
42
0.41421356237309509
10
40.625
20
-46.174999999999997
0
LWPOLYLINE
5
121
100
AcDbEntity
8
0
100
AcDbPolyline
90
8
70
1
43
0.0
10
153.81925000000001
20
-20.075000000000003
42
0.41421356237309509
10
154.31925000000001
20
-20.575000000000003
10
160.06925000000001
20
-20.57500000000001
42
0.41421356237309509
10
160.56925000000004
20
-20.075000000000003
10
160.56925000000004
20
-7.0749999999999957
42
0.41421356237309509
10
160.06925000000001
20
-6.5749999999999975
10
154.31925000000001
20
-6.5749999999999886
42
0.41421356237309509
10
153.81925000000001
20
-7.0749999999999957
0
LWPOLYLINE
5
122
100
AcDbEntity
8
0
100
AcDbPolyline
90
8
70
1
43
0.0
10
16.525000000000002
20
-65.224999999999994
42
0.41421356237309509
10
16.024999999999999
20
-64.724999999999994
10
3.0249999999999999
20
-64.724999999999994
42
0.41421356237309509
10
2.5249999999999999
20
-65.224999999999994
10
2.5249999999999999
20
-78.224999999999994
42
0.41421356237309509
10
3.0249999999999999
20
-78.724999999999994
10
16.024999999999999
20
-78.724999999999994
42
0.41421356237309509
10
16.524999999999999
20
-78.224999999999994
0
LWPOLYLINE
5
123
100
AcDbEntity
8
0
100
AcDbPolyline
90
8
70
1
43
0.0
10
176.52500000000003
20
-61.675000000000011
42
0.41421356237309509
10
177.02500000000003
20
-61.175000000000004
10
177.02500000000003
20
-48.174999999999997
42
0.41421356237309509
10
176.52500000000003
20
-47.674999999999997
10
163.52500000000003
20
-47.67499999999999
42
0.41421356237309509
10
163.02500000000003
20
-48.174999999999997
10
163.02500000000003
20
-61.175000000000004
42
0.41421356237309509
10
163.52500000000003
20
-61.674999999999997
0
LWPOLYLINE
5
124
100
AcDbEntity
8
0
100
AcDbPolyline
90
8
70
1
43
0.0
10
278.48750000000001
20
-48.174999999999997
42
0.41421356237309509
10
277.98750000000001
20
-47.674999999999997
10
276.98750000000007
20
-47.67499999999999
42
0.41421356237309509
10
276.48750000000001
20
-48.174999999999997
10
276.48750000000007
20
-61.175000000000004
42
0.41421356237309509
10
276.98750000000007
20
-61.674999999999997
10
277.98750000000001
20
-61.675000000000011
42
0.41421356237309509
10
278.48750000000001
20
-61.175000000000004
0
LWPOLYLINE
5
125
100
AcDbEntity
8
0
100
AcDbPolyline
90
8
70
1
43
0.0
10
319.90000000000003
20
-10.075000000000003
10
319.90000000000003
20
-23.075000000000003
42
-0.41421356237309509
10
319.39999999999998
20
-23.574999999999999
10
306.39999999999998
20
-23.574999999999999
42
-0.41421356237309509
10
305.90000000000003
20
-23.075000000000003
10
305.90000000000003
20
-10.075000000000003
42
-0.41421356237309509
10
306.39999999999998
20
-9.5750000000000046
10
319.39999999999998
20
-9.5750000000000046
42
-0.41421356237309509
0
LWPOLYLINE
5
126
100
AcDbEntity
8
0
100
AcDbPolyline
90
8
70
1
43
0.0
10
328.92500000000007
20
-61.674999999999997
10
315.92500000000001
20
-61.674999999999997
42
-0.41421356237309509
10
315.42500000000007
20
-61.175000000000004
10
315.42500000000007
20
-48.174999999999997
42
-0.41421356237309509
10
315.92500000000001
20
-47.67499999999999
10
328.92500000000007
20
-47.67499999999999
42
-0.41421356237309509
10
329.42500000000001
20
-48.174999999999997
10
329.42500000000001
20
-61.175000000000004
42
-0.41421356237309509
0
LWPOLYLINE
5
127
100
AcDbEntity
8
0
100
AcDbPolyline
90
8
70
1
43
0.0
10
50.150000000000006
20
-21.074999999999999
42
0.41421356237309509
10
50.650000000000006
20
-21.574999999999996
10
63.650000000000006
20
-21.574999999999996
42
0.41421356237309509
10
64.150000000000006
20
-21.074999999999999
10
64.150000000000006
20
-8.0750000000000011
42
0.41421356237309509
10
63.650000000000006
20
-7.5750000000000028
10
50.650000000000006
20
-7.5750000000000028
42
0.41421356237309509
10
50.150000000000006
20
-8.0750000000000011
0
LWPOLYLINE
5
128
100
AcDbEntity
8
0
100
AcDbPolyline
90
8
70
1
43
0.0
10
130.44325000000001
20
-6.5749999999999886
42
0.41421356237309509
10
129.94325000000001
20
-7.0749999999999957
10
129.94325000000001
20
-20.075000000000003
42
0.41421356237309509
10
130.44325000000001
20
-20.575000000000003
10
136.19325000000001
20
-20.57500000000001
42
0.41421356237309509
10
136.69325000000003
20
-20.075000000000003
10
136.69325000000001
20
-7.0749999999999957
42
0.41421356237309509
10
136.19325000000001
20
-6.5749999999999975
0
LWPOLYLINE
5
129
100
AcDbEntity
8
0
100
AcDbPolyline
90
8
70
1
43
0.0
10
154.63749999999999
20
-46.174999999999997
10
154.63750000000002
20
-59.175000000000004
42
-0.41421356237309509
10
154.13749999999999
20
-59.674999999999997
10
141.13749999999999
20
-59.675000000000004
42
-0.41421356237309509
10
140.63749999999999
20
-59.175000000000004
10
140.63749999999999
20
-46.174999999999997
42
-0.41421356237309509
10
141.13749999999999
20
-45.674999999999997
10
154.13749999999999
20
-45.674999999999997
42
-0.41421356237309509
0
LWPOLYLINE
5
130
100
AcDbEntity
8
0
100
AcDbPolyline
90
8
70
1
43
0.0
10
286.0625
20
-66.725000000000009
10
273.0625
20
-66.724999999999994
42
0.41421356237309509
10
272.5625
20
-67.224999999999994
10
272.5625
20
-80.225000000000009
42
0.41421356237309509
10
273.0625
20
-80.724999999999994
10
286.0625
20
-80.72499999999998
42
0.41421356237309509
10
286.5625
20
-80.225000000000009
10
286.56250000000006
20
-67.224999999999994
42
0.41421356237309509
0
LWPOLYLINE
5
131
100
AcDbEntity
8
0
100
AcDbPolyline
90
8
70
1
43
0.0
10
43.668750000000003
20
-26.624999999999996
10
42.668750000000003
20
-26.624999999999996
42
0.41421356237309509
10
42.16875000000001
20
-27.124999999999993
10
42.16875000000001
20
-40.125
42
0.41421356237309509
10
42.668750000000003
20
-40.625
10
43.668750000000003
20
-40.625
42
0.41421356237309509
10
44.168750000000003
20
-40.125
10
44.168750000000003
20
-27.124999999999993
42
0.41421356237309509
0
LWPOLYLINE
5
132
100
AcDbEntity
8
0
100
AcDbPolyline
90
8
70
1
43
0.0
10
272.27499999999998
20
-48.174999999999997
10
272.27499999999998
20
-61.175000000000004
42
-0.41421356237309509
10
271.77499999999998
20
-61.674999999999997
10
258.77499999999998
20
-61.674999999999997
42
-0.41421356237309509
10
258.27499999999998
20
-61.175000000000004
10
258.27499999999998
20
-48.174999999999997
42
-0.41421356237309509
10
258.77499999999998
20
-47.674999999999997
10
271.77499999999998
20
-47.674999999999997
42
-0.41421356237309509
0
LWPOLYLINE
5
133
100
AcDbEntity
8
0
100
AcDbPolyline
90
8
70
1
43
0.0
10
210.65000000000001
20
-42.125
42
0.41421356237309509
10
211.15000000000003
20
-42.625
10
224.15000000000003
20
-42.625000000000014
42
0.41421356237309509
10
224.65000000000003
20
-42.125
10
224.65000000000003
20
-29.124999999999996
42
0.41421356237309509
10
224.15000000000003
20
-28.625
10
211.15000000000003
20
-28.624999999999989
42
0.41421356237309509
10
210.65000000000001
20
-29.124999999999996
0
LWPOLYLINE
5
134
100
AcDbEntity
8
0
100
AcDbPolyline
90
8
70
1
43
0.0
10
69.25
20
-7.5750000000000028
10
68.25
20
-7.5750000000000028
42
0.41421356237309509
10
67.75
20
-8.0750000000000011
10
67.75
20
-21.074999999999999
42
0.41421356237309509
10
68.25
20
-21.574999999999996
10
69.25
20
-21.574999999999996
42
0.41421356237309509
10
69.75
20
-21.074999999999999
10
69.75
20
-8.0750000000000011
42
0.41421356237309509
0
LWPOLYLINE
5
135
100
AcDbEntity
8
0
100
AcDbPolyline
90
8
70
1
43
0.0
10
36.362499999999997
20
-64.724999999999994
42
0.41421356237309509
10
35.862500000000004
20
-65.224999999999994
10
35.862500000000004
20
-78.224999999999994
42
0.41421356237309509
10
36.362499999999997
20
-78.724999999999994
10
49.362500000000004
20
-78.724999999999994
42
0.41421356237309509
10
49.862499999999997
20
-78.224999999999994
10
49.862499999999997
20
-65.224999999999994
42
0.41421356237309509
10
49.362500000000004
20
-64.724999999999994
0
LWPOLYLINE
5
136
100
AcDbEntity
8
0
100
AcDbPolyline
90
8
70
1
43
0.0
10
77.9375
20
-59.675000000000004
42
0.41421356237309509
10
78.4375
20
-59.175000000000004
10
78.4375
20
-46.174999999999997
42
0.41421356237309509
10
77.9375
20
-45.674999999999997
10
64.9375
20
-45.674999999999997
42
0.41421356237309509
10
64.4375
20
-46.174999999999997
10
64.4375
20
-59.175000000000004
42
0.41421356237309509
10
64.9375
20
-59.674999999999997
0
LWPOLYLINE
5
137
100
AcDbEntity
8
0
100
AcDbPolyline
90
8
70
1
43
0.0
10
267.01250000000005
20
-23.57500000000001
42
0.41421356237309509
10
267.51250000000005
20
-23.075000000000003
10
267.51250000000005
20
-10.075000000000003
42
0.41421356237309509
10
267.01250000000005
20
-9.5750000000000046
10
254.01250000000002
20
-9.5749999999999957
42
0.41421356237309509
10
253.51249999999999
20
-10.075000000000003
10
253.51249999999999
20
-23.075000000000003
42
0.41421356237309509
10
254.01250000000002
20
-23.574999999999999
0
LWPOLYLINE
5
138
100
AcDbEntity
8
0
100
AcDbPolyline
90
8
70
1
43
0.0
10
229.69999999999999
20
-29.124999999999996
10
229.69999999999999
20
-42.125
42
0.41421356237309509
10
230.19999999999999
20
-42.625
10
243.19999999999999
20
-42.625000000000014
42
0.41421356237309509
10
243.70000000000002
20
-42.125
10
243.70000000000002
20
-29.124999999999996
42
0.41421356237309509
10
243.19999999999999
20
-28.625
10
230.19999999999999
20
-28.624999999999989
42
0.41421356237309509
0
LWPOLYLINE
5
139
100
AcDbEntity
8
0
100
AcDbPolyline
90
8
70
1
43
0.0
10
73.962500000000006
20
-40.125
42
0.41421356237309509
10
74.462500000000006
20
-40.625
10
87.46250000000002
20
-40.625000000000007
42
0.41421356237309509
10
87.96250000000002
20
-40.125
10
87.962500000000006
20
-27.124999999999993
42
0.41421356237309509
10
87.46250000000002
20
-26.624999999999996
10
74.462500000000006
20
-26.624999999999996
42
0.41421356237309509
10
73.962500000000006
20
-27.124999999999993
0
LWPOLYLINE
5
140
100
AcDbEntity
8
0
100
AcDbPolyline
90
8
70
1
43
0.0
10
288.44375000000002
20
-42.625000000000014
42
0.41421356237309509
10
288.94375000000002
20
-42.125
10
288.94375000000002
20
-29.124999999999996
42
0.41421356237309509
10
288.44375000000002
20
-28.625
10
275.44375000000002
20
-28.625000000000025
42
0.41421356237309509
10
274.94375000000002
20
-29.124999999999996
10
274.94375000000002
20
-42.125
42
0.41421356237309509
10
275.44375000000002
20
-42.625
0
LWPOLYLINE
5
141
100
AcDbEntity
8
0
100
AcDbPolyline
90
8
70
1
43
0.0
10
246.08125000000004
20
-10.075000000000003
42
0.41421356237309509
10
245.58125000000004
20
-9.5750000000000046
10
232.58125000000004
20
-9.5749999999999957
42
0.41421356237309509
10
232.08125000000001
20
-10.075000000000003
10
232.08125000000001
20
-23.075000000000003
42
0.41421356237309509
10
232.58125000000004
20
-23.574999999999999
10
245.58125000000004
20
-23.57500000000001
42
0.41421356237309509
10
246.08125000000004
20
-23.075000000000003
0
LWPOLYLINE
5
142
100
AcDbEntity
8
0
100
AcDbPolyline
90
8
70
1
43
0.0
10
92.224999999999994
20
-64.724999999999994
10
79.224999999999994
20
-64.724999999999994
42
0.41421356237309509
10
78.724999999999994
20
-65.224999999999994
10
78.724999999999994
20
-78.224999999999994
42
0.41421356237309509
10
79.224999999999994
20
-78.724999999999994
10
92.224999999999994
20
-78.725000000000009
42
0.41421356237309509
10
92.724999999999994
20
-78.224999999999994
10
92.725000000000009
20
-65.224999999999994
42
0.41421356237309509
0
LWPOLYLINE
5
143
100
AcDbEntity
8
0
100
AcDbPolyline
90
8
70
1
43
0.0
10
186.55000000000001
20
-29.124999999999996
10
186.55000000000001
20
-42.125
42
-0.41421356237309509
10
186.05000000000004
20
-42.625
10
173.05000000000004
20
-42.625
42
-0.41421356237309509
10
172.55000000000001
20
-42.125
10
172.55000000000001
20
-29.124999999999996
42
-0.41421356237309509
10
173.05000000000004
20
-28.625
10
186.05000000000004
20
-28.625
42
-0.41421356237309509
0
LWPOLYLINE
5
144
100
AcDbEntity
8
0
100
AcDbPolyline
90
8
70
1
43
0.0
10
115.37500000000001
20
-8.0750000000000011
10
115.37500000000001
20
-21.074999999999999
42
0.41421356237309509
10
115.875
20
-21.574999999999996
10
116.875
20
-21.575000000000006
42
0.41421356237309509
10
117.375
20
-21.074999999999999
10
117.375
20
-8.0750000000000011
42
0.41421356237309509
10
116.875
20
-7.5750000000000028
10
115.875
20
-7.574999999999994
42
0.41421356237309509
0
LWPOLYLINE
5
145
100
AcDbEntity
8
0
100
AcDbPolyline
90
8
70
1
43
0.0
10
171.76249999999999
20
-66.725000000000009
10
158.76249999999999
20
-66.724999999999994
42
0.41421356237309509
10
158.26249999999999
20
-67.224999999999994
10
158.26249999999999
20
-80.225000000000009
42
0.41421356237309509
10
158.76249999999999
20
-80.724999999999994
10
171.76249999999999
20
-80.725000000000023
42
0.41421356237309509
10
172.26249999999999
20
-80.225000000000009
10
172.26249999999999
20
-67.224999999999994
42
0.41421356237309509
0
LWPOLYLINE
5
146
100
AcDbEntity
8
0
100
AcDbPolyline
90
8
70
1
43
0.0
10
201.12500000000006
20
-61.175000000000004
42
0.41421356237309509
10
201.625
20
-61.674999999999997
10
214.62500000000003
20
-61.675000000000011
42
0.41421356237309509
10
215.12500000000003
20
-61.175000000000004
10
215.12500000000003
20
-48.174999999999997
42
0.41421356237309509
10
214.62500000000003
20
-47.67499999999999
10
201.625
20
-47.67499999999999
42
0.41421356237309509
10
201.125
20
-48.174999999999997
0
LWPOLYLINE
5
147
100
AcDbEntity
8
0
100
AcDbPolyline
90
8
70
1
43
0.0
10
112.56250000000001
20
-26.624999999999986
42
0.41421356237309509
10
112.0625
20
-27.124999999999993
10
112.0625
20
-40.125
42
0.41421356237309509
10
112.56250000000001
20
-40.625
10
125.5625
20
-40.625000000000007
42
0.41421356237309509
10
126.06250000000001
20
-40.125
10
126.0625
20
-27.124999999999993
42
0.41421356237309509
10
125.5625
20
-26.624999999999996
0
LWPOLYLINE
5
148
100
AcDbEntity
8
0
100
AcDbPolyline
90
8
70
1
43
0.0
10
135.875
20
-65.224999999999994
10
135.875
20
-78.224999999999994
42
0.41421356237309509
10
136.375
20
-78.724999999999994
10
149.375
20
-78.725000000000009
42
0.41421356237309509
10
149.875
20
-78.224999999999994
10
149.875
20
-65.224999999999994
42
0.41421356237309509
10
149.375
20
-64.724999999999994
10
136.375
20
-64.724999999999994
42
0.41421356237309509
0
LWPOLYLINE
5
149
100
AcDbEntity
8
0
100
AcDbPolyline
90
8
70
1
43
0.0
10
92.175000000000011
20
-21.074999999999999
42
0.41421356237309509
10
92.674999999999997
20
-21.574999999999996
10
93.674999999999997
20
-21.575000000000006
42
0.41421356237309509
10
94.175000000000011
20
-21.074999999999999
10
94.175000000000011
20
-8.0750000000000011
42
0.41421356237309509
10
93.674999999999997
20
-7.5750000000000028
10
92.674999999999997
20
-7.574999999999994
42
0.41421356237309509
10
92.174999999999997
20
-8.0750000000000011
0
LWPOLYLINE
5
150
100
AcDbEntity
8
0
100
AcDbPolyline
90
8
70
1
43
0.0
10
301.1875
20
-47.67499999999999
10
300.18750000000006
20
-47.675000000000026
42
0.41421356237309509
10
299.68750000000006
20
-48.174999999999997
10
299.68750000000006
20
-61.175000000000004
42
0.41421356237309509
10
300.18750000000006
20
-61.674999999999997
10
301.1875
20
-61.675000000000047
42
0.41421356237309509
10
301.6875
20
-61.175000000000004
10
301.6875
20
-48.174999999999997
42
0.41421356237309509
0
LWPOLYLINE
5
151
100
AcDbEntity
8
0
100
AcDbPolyline
90
8
70
1
43
0.0
10
239.22500000000002
20
-48.174999999999997
10
239.22500000000008
20
-61.175000000000004
42
0.41421356237309509
10
239.72500000000002
20
-61.674999999999997
10
252.72500000000005
20
-61.675000000000011
42
0.41421356237309509
10
253.22500000000005
20
-61.175000000000004
10
253.22500000000005
20
-48.174999999999997
42
0.41421356237309509
10
252.72500000000005
20
-47.67499999999999
10
239.72500000000002
20
-47.67499999999999
42
0.41421356237309509
0
LWPOLYLINE
5
152
100
AcDbEntity
8
0
100
AcDbPolyline
90
8
70
1
43
0.0
10
102.53749999999999
20
-46.174999999999997
10
102.53749999999999
20
-59.175000000000004
42
0.41421356237309509
10
103.03750000000001
20
-59.674999999999997
10
116.03749999999999
20
-59.675000000000011
42
0.41421356237309509
10
116.53750000000001
20
-59.175000000000004
10
116.53749999999999
20
-46.174999999999997
42
0.41421356237309509
10
116.03749999999999
20
-45.674999999999997
10
103.03750000000001
20
-45.67499999999999
42
0.41421356237309509
0
LWPOLYLINE
5
153
100
AcDbEntity
8
0
100
AcDbPolyline
90
8
70
1
43
0.0
10
196.07500000000002
20
-48.174999999999997
10
196.07500000000002
20
-61.175000000000004
42
-0.41421356237309509
10
195.57500000000002
20
-61.674999999999997
10
182.57499999999999
20
-61.674999999999997
42
-0.41421356237309509
10
182.07499999999999
20
-61.175000000000004
10
182.07499999999999
20
-48.174999999999997
42
-0.41421356237309509
10
182.57499999999999
20
-47.674999999999997
10
195.57500000000002
20
-47.674999999999997
42
-0.41421356237309509
0
LWPOLYLINE
5
154
100
AcDbEntity
8
0
100
AcDbPolyline
90
8
70
1
43
0.0
10
262.25
20
-42.625000000000014
42
0.41421356237309509
10
262.75
20
-42.125
10
262.75
20
-29.124999999999996
42
0.41421356237309509
10
262.25
20
-28.625
10
249.25
20
-28.624999999999989
42
0.41421356237309509
10
248.75
20
-29.124999999999996
10
248.75
20
-42.125
42
0.41421356237309509
10
249.25
20
-42.625
0
LWPOLYLINE
5
155
100
AcDbEntity
8
0
100
AcDbPolyline
90
8
70
1
43
0.0
10
67.368750000000006
20
-27.124999999999993
10
67.368750000000006
20
-40.125
42
-0.41421356237309509
10
66.868750000000006
20
-40.625
10
65.868750000000006
20
-40.625
42
-0.41421356237309509
10
65.368750000000006
20
-40.125
10
65.368750000000006
20
-27.124999999999993
42
-0.41421356237309509
10
65.868750000000006
20
-26.624999999999996
10
66.868750000000006
20
-26.624999999999996
42
-0.41421356237309509
0
LWPOLYLINE
5
156
100
AcDbEntity
8
0
100
AcDbPolyline
90
8
70
1
43
0.0
10
60.174999999999997
20
-64.724999999999994
42
0.41421356237309509
10
59.675000000000004
20
-65.224999999999994
10
59.675000000000004
20
-78.224999999999994
42
0.41421356237309509
10
60.174999999999997
20
-78.724999999999994
10
73.174999999999997
20
-78.724999999999994
42
0.41421356237309509
10
73.674999999999997
20
-78.224999999999994
10
73.674999999999997
20
-65.224999999999994
42
0.41421356237309509
10
73.174999999999997
20
-64.724999999999994
0
LWPOLYLINE
5
157
100
AcDbEntity
8
0
100
AcDbPolyline
90
8
70
1
43
0.0
10
275.44375000000002
20
-9.5749999999999957
42
0.41421356237309509
10
274.94375000000002
20
-10.075000000000003
10
274.94375000000002
20
-23.075000000000003
42
0.41421356237309509
10
275.44375000000002
20
-23.574999999999999
10
288.44375000000002
20
-23.57500000000001
42
0.41421356237309509
10
288.94375000000002
20
-23.075000000000003
10
288.94375000000002
20
-10.075000000000003
42
0.41421356237309509
10
288.44375000000002
20
-9.5750000000000046
0
LWPOLYLINE
5
158
100
AcDbEntity
8
0
100
AcDbPolyline
90
8
70
1
43
0.0
10
151.75624999999999
20
-7.5750000000000028
10
138.75624999999999
20
-7.574999999999994
42
0.41421356237309509
10
138.25624999999999
20
-8.0750000000000011
10
138.25624999999999
20
-21.074999999999999
42
0.41421356237309509
10
138.75624999999999
20
-21.574999999999996
10
151.75624999999999
20
-21.575000000000006
42
0.41421356237309509
10
152.25625000000002
20
-21.074999999999999
10
152.25625000000002
20
-8.0750000000000011
42
0.41421356237309509
0
LWPOLYLINE
5
159
100
AcDbEntity
8
0
100
AcDbPolyline
90
8
70
1
43
0.0
10
61.268749999999997
20
-40.625
42
0.41421356237309509
10
61.768749999999997
20
-40.125
10
61.768749999999997
20
-27.124999999999993
42
0.41421356237309509
10
61.268749999999997
20
-26.624999999999996
10
48.268750000000004
20
-26.624999999999996
42
0.41421356237309509
10
47.768749999999997
20
-27.124999999999993
10
47.768750000000004
20
-40.125
42
0.41421356237309509
10
48.268750000000004
20
-40.625
0
LWPOLYLINE
5
160
100
AcDbEntity
8
0
100
AcDbPolyline
90
8
70
1
43
0.0
10
254.01250000000002
20
-66.724999999999994
42
0.41421356237309509
10
253.51249999999999
20
-67.224999999999994
10
253.51249999999999
20
-80.225000000000009
42
0.41421356237309509
10
254.01250000000002
20
-80.724999999999994
10
267.01250000000005
20
-80.72499999999998
42
0.41421356237309509
10
267.51249999999999
20
-80.225000000000009
10
267.51250000000005
20
-67.224999999999994
42
0.41421356237309509
10
267.01250000000005
20
-66.725000000000009
0
LWPOLYLINE
5
161
100
AcDbEntity
8
0
100
AcDbPolyline
90
8
70
1
43
0.0
10
145.11250000000001
20
-27.124999999999993
42
0.41421356237309509
10
144.61250000000001
20
-26.624999999999996
10
131.61250000000001
20
-26.624999999999986
42
0.41421356237309509
10
131.11250000000001
20
-27.124999999999993
10
131.11250000000001
20
-40.125
42
0.41421356237309509
10
131.61250000000001
20
-40.625
10
144.61250000000001
20
-40.625000000000007
42
0.41421356237309509
10
145.11250000000001
20
-40.125
0
LWPOLYLINE
5
162
100
AcDbEntity
8
0
100
AcDbPolyline
90
8
70
1
43
0.0
10
282.58749999999998
20
-47.67499999999999
42
0.41421356237309509
10
282.08749999999998
20
-48.174999999999997
10
282.08750000000003
20
-61.175000000000004
42
0.41421356237309509
10
282.58749999999998
20
-61.674999999999997
10
295.58749999999998
20
-61.674999999999976
42
0.41421356237309509
10
296.08749999999992
20
-61.175000000000004
10
296.08749999999998
20
-48.174999999999997
42
0.41421356237309509
10
295.58749999999998
20
-47.67499999999999
0
LWPOLYLINE
5
163
100
AcDbEntity
8
0
100
AcDbPolyline
90
8
70
1
43
0.0
10
163.66250000000002
20
-26.624999999999996
10
150.66249999999999
20
-26.624999999999986
42
0.41421356237309509
10
150.16249999999999
20
-27.124999999999993
10
150.16249999999999
20
-40.125
42
0.41421356237309509
10
150.66249999999999
20
-40.625
10
163.66250000000002
20
-40.625000000000007
42
0.41421356237309509
10
164.16250000000002
20
-40.125
10
164.16250000000002
20
-27.124999999999993
42
0.41421356237309509
0
LWPOLYLINE
5
164
100
AcDbEntity
8
0
100
AcDbPolyline
90
8
70
1
43
0.0
10
196.86250000000001
20
-66.724999999999994
42
0.41421356237309509
10
196.36250000000001
20
-67.224999999999994
10
196.36250000000004
20
-80.225000000000009
42
0.41421356237309509
10
196.86250000000001
20
-80.724999999999994
10
209.86250000000001
20
-80.725000000000023
42
0.41421356237309509
10
210.36250000000001
20
-80.225000000000009
10
210.36250000000001
20
-67.224999999999994
42
0.41421356237309509
10
209.86250000000001
20
-66.725000000000009
0
LWPOLYLINE
5
165
100
AcDbEntity
8
0
100
AcDbPolyline
90
8
70
1
43
0.0
10
106.51250000000002
20
-40.625
10
93.512500000000003
20
-40.625
42
-0.41421356237309509
10
93.012499999999989
20
-40.125
10
93.012499999999989
20
-27.124999999999993
42
-0.41421356237309509
10
93.512500000000003
20
-26.624999999999996
10
106.51250000000002
20
-26.624999999999996
42
-0.41421356237309509
10
107.01250000000002
20
-27.124999999999993
10
107.01250000000002
20
-40.125
42
-0.41421356237309509
0
LWPOLYLINE
5
166
100
AcDbEntity
8
0
100
AcDbPolyline
90
8
70
1
43
0.0
10
186.16825000000003
20
-8.5749999999999904
42
0.41421356237309509
10
185.66825
20
-9.0749999999999975
10
185.66825
20
-22.075000000000003
42
0.41421356237309509
10
186.16825000000003
20
-22.575000000000003
10
191.91825
20
-22.57500000000001
42
0.41421356237309509
10
192.41825000000003
20
-22.075000000000003
10
192.41825000000003
20
-9.0749999999999975
42
0.41421356237309509
10
191.91825
20
-8.5749999999999993
0
LWPOLYLINE
5
167
100
AcDbEntity
8
0
100
AcDbPolyline
90
8
70
1
43
0.0
10
98.275000000000006
20
-7.574999999999994
42
0.41421356237309509
10
97.775000000000006
20
-8.0750000000000011
10
97.775000000000006
20
-21.074999999999999
42
0.41421356237309509
10
98.275000000000006
20
-21.574999999999996
10
111.27500000000001
20
-21.575000000000006
42
0.41421356237309509
10
111.77500000000002
20
-21.074999999999999
10
111.77500000000002
20
-8.0750000000000011
42
0.41421356237309509
10
111.27500000000001
20
-7.5750000000000028
0
LWPOLYLINE
5
168
100
AcDbEntity
8
0
100
AcDbPolyline
90
8
70
1
43
0.0
10
26.050000000000004
20
-27.124999999999993
10
26.050000000000001
20
-40.125
42
-0.41421356237309509
10
25.550000000000001
20
-40.625
10
12.550000000000001
20
-40.625
42
-0.41421356237309509
10
12.050000000000001
20
-40.125
10
12.050000000000001
20
-27.124999999999993
42
-0.41421356237309509
10
12.550000000000001
20
-26.624999999999996
10
25.550000000000001
20
-26.624999999999996
42
-0.41421356237309509
0
LWPOLYLINE
5
169
100
AcDbEntity
8
0
100
AcDbPolyline
90
8
70
1
43
0.0
10
121.58750000000001
20
-46.174999999999997
10
121.58750000000001
20
-59.175000000000004
42
0.41421356237309509
10
122.08750000000002
20
-59.674999999999997
10
135.08750000000001
20
-59.675000000000011
42
0.41421356237309509
10
135.58750000000001
20
-59.175000000000004
10
135.58750000000001
20
-46.174999999999997
42
0.41421356237309509
10
135.08750000000001
20
-45.674999999999997
10
122.08750000000002
20
-45.67499999999999
42
0.41421356237309509
0
LWPOLYLINE
5
170
100
AcDbEntity
8
0
100
AcDbPolyline
90
8
70
1
43
0.0
10
233.67500000000004
20
-61.675000000000011
42
0.41421356237309509
10
234.17500000000004
20
-61.175000000000004
10
234.17500000000004
20
-48.174999999999997
42
0.41421356237309509
10
233.67500000000004
20
-47.674999999999997
10
220.67500000000001
20
-47.67499999999999
42
0.41421356237309509
10
220.17500000000001
20
-48.174999999999997
10
220.17500000000007
20
-61.175000000000004
42
0.41421356237309509
10
220.67500000000001
20
-61.674999999999997
0
LWPOLYLINE
5
171
100
AcDbEntity
8
0
100
AcDbPolyline
90
8
70
1
43
0.0
10
30.762499999999999
20
-64.724999999999994
42
0.41421356237309509
10
30.262500000000003
20
-65.224999999999994
10
30.262500000000003
20
-78.224999999999994
42
0.41421356237309509
10
30.762499999999999
20
-78.724999999999994
10
31.762499999999999
20
-78.724999999999994
42
0.41421356237309509
10
32.262499999999996
20
-78.224999999999994
10
32.262500000000003
20
-65.224999999999994
42
0.41421356237309509
10
31.762499999999999
20
-64.724999999999994
0
LWPOLYLINE
5
172
100
AcDbEntity
8
0
100
AcDbPolyline
90
8
70
1
43
0.0
10
53.462500000000006
20
-78.224999999999994
42
0.41421356237309509
10
53.962500000000006
20
-78.724999999999994
10
54.962499999999999
20
-78.724999999999994
42
0.41421356237309509
10
55.462499999999999
20
-78.224999999999994
10
55.462499999999999
20
-65.224999999999994
42
0.41421356237309509
10
54.962499999999999
20
-64.724999999999994
10
53.962500000000006
20
-64.724999999999994
42
0.41421356237309509
10
53.462500000000006
20
-65.224999999999994
0
CIRCLE
5
173
100
AcDbEntity
8
0
100
AcDbCircle
10
119.0625
20
-43.149999999999991
30
0
40
1.1000000000000032
210
0
220
0
230
1
0
CIRCLE
5
174
100
AcDbEntity
8
0
100
AcDbCircle
10
80.962500000000006
20
-43.149999999999991
30
0
40
1.1000000000000032
210
0
220
0
230
1
0
CIRCLE
5
175
100
AcDbEntity
8
0
100
AcDbCircle
10
37.681249999999999
20
-14.574999999999999
30
-3.1902049117788557e-15
40
1.100000000000001
210
0
220
0
230
1
0
CIRCLE
5
176
100
AcDbEntity
8
0
100
AcDbCircle
10
23.393750000000001
20
-71.724999999999994
30
3.8086515453482685e-15
40
1.0999999999999968
210
0
220
0
230
1
0
CIRCLE
5
177
100
AcDbEntity
8
0
100
AcDbCircle
10
147.63749999999999
20
-62.199999999999996
30
2.3329521523757076e-15
40
1.0999999999999943
210
0
220
0
230
1
0
CIRCLE
5
178
100
AcDbEntity
8
0
100
AcDbCircle
10
95.249999999999986
20
-71.724999999999994
30
3.8086515453482685e-15
40
1.1000000000000032
210
0
220
0
230
1
0
CIRCLE
5
179
100
AcDbEntity
8
0
100
AcDbCircle
10
3.6437499999999998
20
-52.674999999999997
30
1.4756993929725602e-15
40
1.1000000000000032
210
0
220
0
230
1
0
CIRCLE
5
180
100
AcDbEntity
8
0
100
AcDbCircle
10
8.40625
20
-14.574999999999999
30
-3.1902049117788557e-15
40
1.100000000000001
210
0
220
0
230
1
0
CIRCLE
5
181
100
AcDbEntity
8
0
100
AcDbCircle
10
297.421875
20
-16.575000000000003
30
-3.1902049117788557e-15
40
1.100000000000001
210
0
220
0
230
1
0
CIRCLE
5
182
100
AcDbEntity
8
0
100
AcDbCircle
10
328.30624999999998
20
-16.575000000000003
30
-3.1902049117788557e-15
40
1.100000000000001
210
0
220
0
230
1
0
CIRCLE
5
183
100
AcDbEntity
8
0
100
AcDbCircle
10
312.90000000000009
20
-73.724999999999994
30
3.8086515453482685e-15
40
1.1000000000000032
210
0
220
0
230
1
0
CIRCLE
5
184
100
AcDbEntity
8
0
100
AcDbCircle
10
333.06875000000002
20
-54.675000000000004
30
1.4756993929725602e-15
40
1.1000000000000032
210
0
220
0
230
1
0
CIRCLE
5
185
100
AcDbEntity
8
0
100
AcDbCircle
10
165.26249999999999
20
-64.200000000000003
30
2.9513987859451213e-15
40
1.0999999999999943
210
0
220
0
230
1
0
CIRCLE
5
186
100
AcDbEntity
8
0
100
AcDbCircle
10
255.75000000000003
20
-45.149999999999999
30
0
40
1.1000000000000032
210
0
220
0
230
1
0
CIRCLE
5
187
100
AcDbEntity
8
0
100
AcDbCircle
10
217.65000000000001
20
-45.149999999999999
30
0
40
1.0999999999999943
210
0
220
0
230
1
0
CIRCLE
5
188
100
AcDbEntity
8
0
100
AcDbCircle
10
212.88749999999999
20
-73.724999999999994
30
3.8086515453482685e-15
40
1.1000000000000032
210
0
220
0
230
1
0
CIRCLE
5
189
100
AcDbEntity
8
0
100
AcDbCircle
10
270.03750000000002
20
-73.724999999999994
30
3.8086515453482685e-15
40
1.1000000000000032
210
0
220
0
230
1
0
CIRCLE
5
190
100
AcDbEntity
8
0
100
AcDbCircle
10
166.00987500000002
20
-14.574999999999992
30
-8.5725275940314781e-16
40
1.100000000000001
210
0
220
0
230
1
0
CIRCLE
5
191
100
AcDbEntity
8
0
100
AcDbCircle
10
180.22812500000001
20
-16.574999999999992
30
-8.5725275940314781e-16
40
1.100000000000001
210
0
220
0
230
1
0
CIRCLE
5
192
100
AcDbEntity
8
0
100
AcDbCircle
10
224.18775000000005
20
-16.575000000000003
30
-3.1902049117788557e-15
40
1.100000000000001
210
0
220
0
230
1
0
CIRCLE
5
193
100
AcDbEntity
8
0
100
AcDbCircle
10
123.659125
20
-14.574999999999999
30
-3.1902049117788557e-15
40
1.100000000000001
210
0
220
0
230
1
0
LWPOLYLINE
5
194
100
AcDbEntity
8
0
100
AcDbPolyline
90
12
70
1
43
0.0
10
152.40000000000001
20
-84.25
10
152.40000000000001
20
-62.199999999999996
10
157.16249999999999
20
-62.199999999999996
10
157.16249999999999
20
-43.149999999999991
10
166.68750000000003
20
-43.149999999999991
10
166.68750000000003
20
-24.099999999999994
10
171.45050000000001
20
-24.099999999999994
10
171.45050000000001
20
-2.0499999999999896
10
-4.6189769738585912e-13
20
-2.0499999999999901
42
0.41421356237309637
10
-3.0000000000004596
20
-5.0500000000000078
10
-3.0000000000000155
20
-81.250000000000014
42
0.41421356237309415
10
0
20
-84.25
0
LWPOLYLINE
5
195
100
AcDbEntity
8
0
100
AcDbPolyline
90
12
70
1
43
0.0
10
336.71145796381029
20
-86.25
10
155.73749999999995
20
-86.25
10
155.73749999999995
20
-64.200000000000003
10
160.5
20
-64.200000000000003
10
160.5
20
-45.149999999999999
10
170.02500000000001
20
-45.149999999999999
10
170.02500000000001
20
-26.099999999999994
10
174.78800000000001
20
-26.099999999999994
10
174.78800000000001
20
-4.0499999999999918
10
336.71145796381029
20
-4.0500000000000611
42
-0.41421356237309537
10
339.71145796381023
20
-7.0500000000000362
10
339.71145796381023
20
-83.25
42
-0.41421356237309681
0
ENDSEC
0
SECTION
2
OBJECTS
0
DICTIONARY
5
C
100
AcDbDictionary
3
ACAD_GROUP
350
D
3
ACAD_MLINESTYLE
350
17
0
DICTIONARY
5
D
100
AcDbDictionary
0
DICTIONARY
5
1A
330
C
100
AcDbDictionary
0
DICTIONARY
5
17
100
AcDbDictionary
0
ENDSEC
0
EOF
